<svg width="397" height="262" viewBox="0 0 397 262" fill="none" xmlns="http://www.w3.org/2000/svg">
<path d="M167.575 167.715C143.984 191.676 118.22 208.515 95.9137 216.568C73.0388 224.826 56.4413 223.071 47.9022 214.664C39.3631 206.256 37.35 189.688 45.251 166.688C52.9556 144.259 69.3917 118.236 92.9831 94.2749C116.574 70.3136 142.338 53.4746 164.644 45.422C187.519 37.164 204.117 38.9191 212.656 47.3264C221.195 55.7336 223.208 72.3018 215.307 95.3024C207.602 117.731 191.166 143.754 167.575 167.715Z" stroke="#FC8606" stroke-opacity="0.45" stroke-width="15"/>
<path d="M158.821 122.514C156.021 120.98 153.154 119.714 150.221 118.714C147.354 117.714 144.654 117.214 142.121 117.214C138.987 117.214 136.521 117.847 134.721 119.114C132.921 120.38 132.021 122.28 132.021 124.814C132.021 126.547 132.687 128.114 134.021 129.514C135.421 130.847 137.187 132.047 139.321 133.114C141.521 134.18 143.787 135.147 146.121 136.014C148.254 136.814 150.354 137.78 152.421 138.914C154.554 139.98 156.454 141.347 158.121 143.014C159.787 144.614 161.121 146.647 162.121 149.114C163.121 151.514 163.621 154.48 163.621 158.014C163.621 161.747 162.654 165.214 160.721 168.414C158.787 171.614 155.954 174.214 152.221 176.214C148.487 178.147 143.887 179.114 138.421 179.114C135.621 179.114 132.754 178.847 129.821 178.314C126.954 177.714 124.121 176.847 121.321 175.714C118.521 174.514 115.821 173.014 113.221 171.214L119.621 159.914C121.354 161.18 123.221 162.314 125.221 163.314C127.287 164.247 129.354 164.98 131.421 165.514C133.487 166.047 135.387 166.314 137.121 166.314C138.854 166.314 140.587 166.08 142.321 165.614C144.121 165.08 145.587 164.214 146.721 163.014C147.921 161.814 148.521 160.147 148.521 158.014C148.521 156.547 148.021 155.214 147.021 154.014C146.087 152.814 144.787 151.714 143.121 150.714C141.521 149.714 139.754 148.847 137.821 148.114C135.554 147.247 133.221 146.247 130.821 145.114C128.421 143.98 126.154 142.614 124.021 141.014C121.954 139.347 120.254 137.314 118.921 134.914C117.654 132.447 117.021 129.447 117.021 125.914C117.021 121.647 117.954 117.947 119.821 114.814C121.754 111.68 124.454 109.214 127.921 107.414C131.387 105.547 135.387 104.514 139.921 104.314C145.854 104.314 150.654 105.014 154.321 106.414C158.054 107.814 161.387 109.48 164.321 111.414L158.821 122.514ZM202.921 179.514C200.321 179.514 197.755 179.047 195.221 178.114C192.755 177.114 190.688 175.714 189.021 173.914L189.421 169.814V199.314H175.521V133.614H187.521L189.521 142.114L188.421 139.114C190.688 137.18 193.221 135.58 196.021 134.314C198.821 133.047 202.055 132.414 205.721 132.414C209.788 132.414 213.421 133.38 216.621 135.314C219.821 137.18 222.321 139.914 224.121 143.514C225.988 147.047 226.921 151.314 226.921 156.314C226.921 161.247 225.888 165.447 223.821 168.914C221.755 172.38 218.921 175.014 215.321 176.814C211.721 178.614 207.588 179.514 202.921 179.514ZM200.121 168.514C202.388 168.514 204.455 168.014 206.321 167.014C208.255 166.014 209.788 164.614 210.921 162.814C212.121 160.947 212.721 158.847 212.721 156.514C212.721 154.047 212.188 151.914 211.121 150.114C210.121 148.247 208.721 146.814 206.921 145.814C205.188 144.747 203.255 144.214 201.121 144.214C199.255 144.214 197.588 144.48 196.121 145.014C194.721 145.48 193.455 146.214 192.321 147.214C191.255 148.147 190.321 149.347 189.521 150.814V161.514C190.055 162.914 190.821 164.147 191.821 165.214C192.821 166.28 194.021 167.114 195.421 167.714C196.888 168.247 198.455 168.514 200.121 168.514ZM256.324 179.514C252.257 179.514 248.557 178.714 245.224 177.114C241.957 175.447 239.357 172.914 237.424 169.514C235.49 166.114 234.524 161.78 234.524 156.514C234.524 151.58 235.524 147.314 237.524 143.714C239.524 140.114 242.157 137.347 245.424 135.414C248.69 133.414 252.157 132.414 255.824 132.414C260.157 132.414 263.424 133.147 265.624 134.614C267.89 136.014 269.757 137.58 271.224 139.314L270.624 141.014L271.924 134.614H284.924V178.314H270.924V168.814L272.024 171.814C271.89 171.814 271.49 172.214 270.824 173.014C270.157 173.747 269.157 174.647 267.824 175.714C266.557 176.714 264.957 177.58 263.024 178.314C261.157 179.114 258.924 179.514 256.324 179.514ZM260.324 168.114C261.99 168.114 263.49 167.88 264.824 167.414C266.157 166.88 267.324 166.147 268.324 165.214C269.324 164.214 270.19 162.98 270.924 161.514V150.814C270.39 149.347 269.59 148.114 268.524 147.114C267.457 146.047 266.19 145.247 264.724 144.714C263.257 144.114 261.624 143.814 259.824 143.814C257.824 143.814 255.957 144.347 254.224 145.414C252.557 146.414 251.224 147.814 250.224 149.614C249.224 151.414 248.724 153.48 248.724 155.814C248.724 158.147 249.257 160.247 250.324 162.114C251.39 163.98 252.79 165.447 254.524 166.514C256.324 167.58 258.257 168.114 260.324 168.114ZM336.45 174.414C334.516 175.947 332.083 177.18 329.15 178.114C326.283 179.047 323.45 179.514 320.65 179.514C315.65 179.514 311.283 178.614 307.55 176.814C303.883 174.947 301.016 172.314 298.95 168.914C296.95 165.447 295.95 161.28 295.95 156.414C295.95 151.547 297.05 147.414 299.25 144.014C301.45 140.547 304.316 137.914 307.85 136.114C311.45 134.314 315.216 133.414 319.15 133.414C323.083 133.414 326.483 133.947 329.35 135.014C332.283 136.08 334.783 137.48 336.85 139.214L330.05 148.214C329.116 147.48 327.816 146.747 326.15 146.014C324.55 145.214 322.65 144.814 320.45 144.814C318.516 144.814 316.75 145.314 315.15 146.314C313.55 147.314 312.283 148.68 311.35 150.414C310.416 152.147 309.95 154.147 309.95 156.414C309.95 158.547 310.45 160.514 311.45 162.314C312.45 164.114 313.816 165.547 315.55 166.614C317.35 167.614 319.45 168.114 321.85 168.114C323.383 168.114 324.783 167.914 326.05 167.514C327.383 167.047 328.516 166.414 329.45 165.614L336.45 174.414ZM368.701 179.514C363.368 179.514 358.834 178.514 355.101 176.514C351.434 174.514 348.634 171.747 346.701 168.214C344.768 164.68 343.801 160.614 343.801 156.014C343.801 151.614 344.934 147.647 347.201 144.114C349.468 140.58 352.501 137.78 356.301 135.714C360.101 133.58 364.334 132.514 369.001 132.514C375.268 132.514 380.401 134.347 384.401 138.014C388.468 141.614 391.101 146.847 392.301 153.714L358.301 164.514L355.201 156.914L379.801 148.614L376.901 149.914C376.368 148.18 375.401 146.68 374.001 145.414C372.668 144.08 370.634 143.414 367.901 143.414C365.834 143.414 364.001 143.914 362.401 144.914C360.868 145.847 359.668 147.214 358.801 149.014C358.001 150.747 357.601 152.814 357.601 155.214C357.601 157.947 358.101 160.247 359.101 162.114C360.101 163.914 361.468 165.28 363.201 166.214C364.934 167.147 366.868 167.614 369.001 167.614C370.534 167.614 372.001 167.347 373.401 166.814C374.868 166.28 376.301 165.58 377.701 164.714L383.901 175.114C381.568 176.447 379.034 177.514 376.301 178.314C373.634 179.114 371.101 179.514 368.701 179.514Z" fill="#F3F3F3"/>
</svg>
